<?xml version="1.0" encoding="UTF-8"?><svg id="uuid-c9ff52d0-56da-4106-b299-e0ee9a191156" xmlns="http://www.w3.org/2000/svg" xmlns:xlink="http://www.w3.org/1999/xlink" viewBox="0 0 35 36">
<title>Microsoft Excel 2025 logo - Brandlogos.net</title><defs><radialGradient id="uuid-69be9980-64e2-43df-8e01-3c9622118bba" cx="-635.35" cy="516.07" fx="-635.35" fy="516.07" r="1" gradientTransform="translate(-6031.45 -30244.08) rotate(-133.55) scale(41.12 -31.91)" gradientUnits="userSpaceOnUse"><stop offset=".06" stop-color="#379539"/><stop offset=".42" stop-color="#297c2d"/><stop offset=".7" stop-color="#15561c"/></radialGradient><radialGradient id="uuid-963c3933-6e40-4bcf-acb7-e4c4e3524a0a" cx="-660.54" cy="509.62" fx="-660.54" fy="509.62" r="1" gradientTransform="translate(-3332.69 -12354.65) rotate(-135.97) scale(16.66 -12.89)" gradientUnits="userSpaceOnUse"><stop offset="0" stop-color="#073b10"/><stop offset=".99" stop-color="#084a13" stop-opacity="0"/></radialGradient><linearGradient id="uuid-4bb8c4df-11ca-4217-ad48-841947fa88ae" x1="5" y1="123" x2="18.78" y2="123" gradientTransform="translate(0 144) scale(1 -1)" gradientUnits="userSpaceOnUse"><stop offset="0" stop-color="#52d17c"/><stop offset=".33" stop-color="#4aa647"/></linearGradient><linearGradient id="uuid-d4286e6a-71e7-4715-a79c-9e2dcd9499d9" x1="14" y1="132" x2="14" y2="119.5" gradientTransform="translate(0 144) scale(1 -1)" gradientUnits="userSpaceOnUse"><stop offset="0" stop-color="#29852f"/><stop offset=".5" stop-color="#4aa647" stop-opacity="0"/></linearGradient><linearGradient id="uuid-9b424fe0-a8c7-424d-8693-5957b69ebc5f" x1="5.8" y1="129.26" x2="22.43" y2="143.68" gradientTransform="translate(0 144) scale(1 -1)" gradientUnits="userSpaceOnUse"><stop offset="0" stop-color="#66d052"/><stop offset="1" stop-color="#85e972"/></linearGradient><radialGradient id="uuid-62223d1d-f9f7-4c13-8b3b-a4a74e26d1ed" cx="-686.64" cy="541.48" fx="-686.64" fy="541.48" r="1" gradientTransform="translate(-6170.29 -10331.4) rotate(-180) scale(9.02 -19.09)" gradientUnits="userSpaceOnUse"><stop offset=".29" stop-color="#4eb43b"/><stop offset="1" stop-color="#72cc61" stop-opacity="0"/></radialGradient><linearGradient id="uuid-51a440c4-0af5-4159-a06d-5a6d1c29a590" x1="13.11" y1="135" x2="5" y2="135" gradientTransform="translate(0 144) scale(1 -1)" gradientUnits="userSpaceOnUse"><stop offset=".18" stop-color="#c0e075" stop-opacity="0"/><stop offset="1" stop-color="#d1eb95"/></linearGradient><radialGradient id="uuid-b828a67b-6cab-49e8-8aa9-5298b0fc170a" cx="-651.22" cy="526.48" fx="-651.22" fy="526.48" r="1" gradientTransform="translate(-18157.76 -16.12) rotate(-141.03) scale(21.75 21.69)" gradientUnits="userSpaceOnUse"><stop offset=".44" stop-color="#79e96d"/><stop offset="1" stop-color="#d0eb76"/></radialGradient><radialGradient id="uuid-d3440f42-a0e4-4061-be24-e62a2b15aa95" cx="-587.67" cy="524.66" fx="-587.67" fy="524.66" r="1" gradientTransform="translate(-14494.38 33316.86) rotate(45) scale(22.63 -64.41)" gradientUnits="userSpaceOnUse"><stop offset="0" stop-color="#20a85e"/><stop offset=".94" stop-color="#09442a"/></radialGradient><radialGradient id="uuid-44bb30d4-0f70-4f41-b481-dcae2977d5d3" cx="-585.29" cy="569.64" fx="-585.29" fy="569.64" r="1" gradientTransform="translate(-7340.3 6581.8) rotate(90) scale(11.2 -12.9)" gradientUnits="userSpaceOnUse"><stop offset=".58" stop-color="#33a662" stop-opacity="0"/><stop offset=".97" stop-color="#98f0b0"/></radialGradient></defs><path d="M5,11.5c0-2.49,2.01-4.5,4.5-4.5h25.5v26c0,1.66-1.34,3-3,3H11c-3.31,0-6-2.69-6-6V11.5Z" style="fill:url(#uuid-69be9980-64e2-43df-8e01-3c9622118bba);"/><path d="M5,11.5c0-2.49,2.01-4.5,4.5-4.5h25.5v26c0,1.66-1.34,3-3,3H11c-3.31,0-6-2.69-6-6V11.5Z" style="fill:url(#uuid-963c3933-6e40-4bcf-acb7-e4c4e3524a0a); fill-opacity:.7;"/><path d="M5,16.5c0-2.49,2.01-4.5,4.5-4.5h13.5c-1.66,0-3,1.34-3,3v6c0,1.66-1.34,3-3,3h-6c-3.31,0-6,2.69-6,6v-13.5Z" style="fill:url(#uuid-4bb8c4df-11ca-4217-ad48-841947fa88ae);"/><path d="M5,16.5c0-2.49,2.01-4.5,4.5-4.5h13.5c-1.66,0-3,1.34-3,3v6c0,1.66-1.34,3-3,3h-6c-3.31,0-6,2.69-6,6v-13.5Z" style="fill:url(#uuid-d4286e6a-71e7-4715-a79c-9e2dcd9499d9); fill-opacity:.3;"/><path d="M5,6C5,2.69,7.69,0,11,0h12v12h-12c-3.31,0-6,2.69-6,6V6Z" style="fill:url(#uuid-9b424fe0-a8c7-424d-8693-5957b69ebc5f);"/><path d="M5,6C5,2.69,7.69,0,11,0h12v12h-12c-3.31,0-6,2.69-6,6V6Z" style="fill:url(#uuid-62223d1d-f9f7-4c13-8b3b-a4a74e26d1ed);"/><path d="M5,6C5,2.69,7.69,0,11,0h12v12h-12c-3.31,0-6,2.69-6,6V6Z" style="fill:url(#uuid-51a440c4-0af5-4159-a06d-5a6d1c29a590);"/><rect x="20" width="15" height="12" rx="3" ry="3" style="fill:url(#uuid-b828a67b-6cab-49e8-8aa9-5298b0fc170a);"/><rect y="17" width="16" height="16" rx="3.25" ry="3.25" style="fill:url(#uuid-d3440f42-a0e4-4061-be24-e62a2b15aa95);"/><rect y="17" width="16" height="16" rx="3.25" ry="3.25" style="fill:url(#uuid-44bb30d4-0f70-4f41-b481-dcae2977d5d3); fill-opacity:.3;"/><path d="M12.21,29.57h-2.47l-1.55-2.91c-.06-.1-.1-.18-.13-.24-.03-.06-.05-.14-.08-.22h-.03c-.04.1-.07.18-.11.25-.03.06-.07.14-.12.24l-1.61,2.89h-2.33l2.79-4.58-2.6-4.57h2.43l1.38,2.6c.06.11.1.2.14.28.04.08.09.17.13.27h.03c.06-.12.11-.22.14-.29.04-.07.09-.17.15-.29l1.43-2.58h2.32l-2.64,4.49,2.71,4.65Z" style="fill:#fff;"/></svg>